<svg width="24" height="24" viewBox="0 0 24 24" fill="none" xmlns="http://www.w3.org/2000/svg">
    <svg id="add" viewBox="0 0 14 14"><path d="M13.984 7.984h-6v6H6.016v-6h-6V6.016h6v-6h1.968v6h6v1.968z"/></svg>
    <svg id="add_circle_outline" viewBox="0 0 24 24"><path fill="none" d="M0 0h24v24H0V0z"/><path d="M13 7h-2v4H7v2h4v4h2v-4h4v-2h-4V7zm-1-5C6.48 2 2 6.48 2 12s4.48 10 10 10 10-4.48 10-10S17.52 2 12 2zm0 18c-4.41 0-8-3.59-8-8s3.59-8 8-8 8 3.59 8 8-3.59 8-8 8z"/></svg>
    <svg id="anchor" viewBox="0 0 24 24" fill="none"><path d="M12 2a3 3 0 0 0-1 5.83V10H8v2h3v6.92A6.494 6.494 0 0 1 6.53 16H8v-2H3v5h2v-1.7c1.58 2.31 4.2 3.7 7 3.7s5.42-1.39 7-3.69V19h2v-5h-5v2h1.46c-1 1.56-2.63 2.63-4.46 2.92V12h3v-2h-3V7.82c1.2-.42 2-1.55 2-2.82a3 3 0 0 0-3-3zm0 2a1 1 0 1 1 0 2 1 1 0 0 1 0-2z"/></svg>
    <svg id="arrow-left" viewBox="0 0 14 14" fill="none"><path d="M0.25 13.0117L0.249999 0.988281L1.76172 0.988281L1.76172 13.0117L0.25 13.0117ZM6.26172 9.98828L3.23828 7L6.26172 4.01172L6.26172 6.26172L13.75 6.26172L13.75 7.73828L6.26172 7.73828L6.26172 9.98828Z"/></svg>
    <svg id="arrow-right" viewBox="0 0 14 14" fill="none"><path d="M13.75 13.0117L13.75 0.988281L12.2383 0.988281L12.2383 13.0117L13.75 13.0117ZM7.73828 9.98828L10.7617 7L7.73828 4.01172L7.73828 6.26172L0.25 6.26172L0.25 7.73828L7.73828 7.73828L7.73828 9.98828Z"/></svg>
    <svg id="bar_chart" viewBox="0 0 18 18"><path d="M13.18 16.6L11.17 13.12C12.15 12.4 12.83 11.28 12.97 10H17C16.83 12.76 15.35 15.16 13.18 16.6ZM10 4.03V0C14.3 0.26 17.74 3.7 18 8H13.97C13.74 5.91 12.09 4.26 10 4.03ZM4 9.5C4 10.14 4.13 10.75 4.38 11.3L0.9 13.31C0.32 12.16 0 10.87 0 9.5C0 4.97 3.54 1.27 8 1V5.03C5.75 5.28 4 7.18 4 9.5ZM8.5 18C5.53 18 2.92 16.5 1.4 14.18L4.88 12.17C5.7 13.28 7 14 8.5 14C9.14 14 9.75 13.87 10.3 13.62L12.31 17.1C11.16 17.68 9.87 18 8.5 18Z"/></svg>
    <svg id="bubble_chart" viewBox="0 0 20 20"><path d="M11 0.0500488C16.05 0.550049 20 4.82005 20 10C20 11.45 19.68 12.83 19.12 14.07L16.5 12.54C16.82 11.75 17 10.9 17 10C17 6.47005 14.39 3.57005 11 3.08005V0.0500488ZM10 17C12.21 17 14.17 16 15.45 14.38L18.05 15.91C16.23 18.39 13.3 20 10 20C4.47 20 0 15.5 0 10C0 4.81005 3.94 0.550049 9 0.0500488V3.08005C5.61 3.57005 3 6.47005 3 10C3 11.8566 3.7375 13.637 5.05025 14.9498C6.36301 16.2626 8.14348 17 10 17ZM10 4.00005C11.5913 4.00005 13.1174 4.63219 14.2426 5.75741C15.3679 6.88263 16 8.40875 16 10C16 12.97 13.84 15.44 11 15.92V12.83C12.17 12.42 13 11.31 13 10C13 9.2044 12.6839 8.44134 12.1213 7.87873C11.5587 7.31612 10.7956 7.00005 10 7.00005L9.45 7.05005L7.91 4.38005C8.56 4.13005 9.26 4.00005 10 4.00005ZM4 10C4 8.14005 4.85 6.50005 6.18 5.38005L7.72 8.05005C7.27 8.57005 7 9.26005 7 10C7 11.31 7.83 12.42 9 12.83V15.92C6.16 15.44 4 12.97 4 10Z"/></svg>
    <svg id="chart-align-left" viewBox="0 0 21 18"><path d="M21 0H4V2H21V0ZM15.334 4H4V6H15.334V4ZM21 8H4V10H21V8ZM15.334 12H4V14H15.334V12ZM21 18V16H4V18H21ZM2.001 18H0.000999451V0H2.001V18Z"/></svg>
    <svg id="chart-align-right" viewBox="0 0 21 18"><path d="M0 18H17V16H0V18ZM5.66667 14H17V12H5.66667V14ZM0 10H17V8H0V10ZM5.66667 6H17V4H5.66667V6ZM0 0V2H17V0H0Z"/><path d="M21 0H19V18H21V0Z"/></svg>
    <svg id="chart-area" viewBox="0 0 20 19"><path d="M14.74 10.05L19.97 1L20 16.55V18.55H0V0.55H2V13.09L7.5 3.55L14 7.33L18.24 0L19.97 1L14.74 10.05L8.23 6.3L2.31 16.55L3.5 14.4896L8.23 6.3L14.74 10.05Z"/></svg> <svg id="chart-line" viewBox="0 0 20 18"><path d="M14 8.78L18.24 1.45L19.97 2.45L14.74 11.5L8.23 7.75L3.46 16H20V18H0V0H2V14.54L7.5 5L14 8.78Z"/></svg>
    <svg id="chart-boldLine" viewBox="0 0 20 18"><path d="M14 6.78L17.5 1L19.97 2.45L14.74 11.5L8.23 7.75L3.46 16H20V18H0V0H2V12.1454L7.5 3L14 6.78Z"/></svg>
    <svg id="chart_comparison" viewBox="0 0 20 15" fill="none"><path d="M.016 9.984V8.016h7.968v1.968H.016zM16 8.016h3.984v1.968H16v4.032h-2.016V9.984H10V8.016h3.984V3.984H16v4.032zM12.016 0v2.016h-12V0h12zm0 3.984V6h-12V3.984h12z"/></svg>
    <svg id="chart_minmax" viewBox="0 0 18 18"><path d="M6 4L8 10V14H10V10L12 4H10L9 7L8 4H6ZM2 0H16C16.5304 0 17.0391 0.210714 17.4142 0.585786C17.7893 0.960859 18 1.46957 18 2V16C18 16.5304 17.7893 17.0391 17.4142 17.4142C17.0391 17.7893 16.5304 18 16 18H2C1.46957 18 0.960859 17.7893 0.585786 17.4142C0.210714 17.0391 0 16.5304 0 16V2C0 1.46957 0.210714 0.960859 0.585786 0.585786C0.960859 0.210714 1.46957 0 2 0Z"/></svg>
    <svg id="check_circle" viewBox="0 0 24 24"><path d="M0 0h24v24H0z" fill="none"/><path d="M12 2C6.48 2 2 6.48 2 12s4.48 10 10 10 10-4.48 10-10S17.52 2 12 2zm-2 15l-5-5 1.41-1.41L10 14.17l7.59-7.59L19 8l-9 9z"/></svg>
    <svg id="clear" viewBox="0 0 14 14"><path d="M14 1.41L12.59 0L7 5.59L1.41 0L0 1.41L5.59 7L0 12.59L1.41 14L7 8.41L12.59 14L14 12.59L8.41 7L14 1.41Z"/></svg>
    <svg id="code" viewBox="0 0 24 24"><path fill="none" d="M0 0h24v24H0V0z"/><path d="M9.4 16.6L4.8 12l4.6-4.6L8 6l-6 6 6 6 1.4-1.4zm5.2 0l4.6-4.6-4.6-4.6L16 6l6 6-6 6-1.4-1.4z"/></svg>
    <svg id="delete" viewBox="0 0 14 18"><path d="M13.984.984V3H.016V.984h3.468L4.516 0h4.968l1.032.984h3.468zM1 15.984v-12h12v12c0 .532-.203 1-.61 1.407-.406.406-.874.609-1.406.609H3.016c-.532 0-1-.203-1.407-.61-.406-.406-.609-.874-.609-1.406z"/></svg>
    <svg id="done" viewBox="0 0 18 14"><path d="M6 11.2188L16.5938 0.578125L18 1.98438L6 13.9844L0.421875 8.40625L1.78125 7L6 11.2188Z"/></svg>
    <svg id="drag_handle" viewBox="0 0 17 6"><path d="M0.211914 0H16.2119V2H0.211914V0ZM0.211914 4H16.2119V6H0.211914V4Z"/></svg>
    <svg id="edit" viewBox="0 0 18 18"><path d="M17.719 4.031L15.89 5.86l-3.75-3.75L13.969.281A.954.954 0 0114.672 0c.281 0 .515.094.703.281l2.344 2.344a.954.954 0 01.281.703.954.954 0 01-.281.703zM0 14.25L11.063 3.187l3.75 3.75L3.75 18H0v-3.75z"/></svg>
    <svg id="error" viewBox="0 0 20 20"><path d="M10.9844 10.9844V4.98438H9.01562V10.9844H10.9844ZM10.9844 15.0156V13H9.01562V15.0156H10.9844ZM2.92188 2.96875C4.89062 1 7.25 0.015625 10 0.015625C12.75 0.015625 15.0938 1 17.0312 2.96875C19 4.90625 19.9844 7.25 19.9844 10C19.9844 12.75 19 15.1094 17.0312 17.0781C15.0938 19.0156 12.75 19.9844 10 19.9844C7.25 19.9844 4.89062 19.0156 2.92188 17.0781C0.984375 15.1094 0.015625 12.75 0.015625 10C0.015625 7.25 0.984375 4.90625 2.92188 2.96875Z"/></svg>
    <svg id="expand_less" viewBox="0 0 24 24"><path d="M12 8l-6 6 1.41 1.41L12 10.83l4.59 4.58L18 14z"/><path d="M0 0h24v24H0z" fill="none"/></svg>
    <svg id="expand_more" viewBox="0 0 24 24"><path d="M16.59 8.59L12 13.17 7.41 8.59 6 10l6 6 6-6z"/><path d="M0 0h24v24H0z" fill="none"/></svg>
    <svg id="eye" viewBox="0 0 22 16"><path d="M11 .5C6 .5 1.73 3.61 0 8c1.73 4.39 6 7.5 11 7.5s9.27-3.11 11-7.5C20.27 3.61 16 .5 11 .5zM11 13c-2.76 0-5-2.24-5-5s2.24-5 5-5 5 2.24 5 5-2.24 5-5 5zm0-8C9.34 5 8 6.34 8 8s1.34 3 3 3 3-1.34 3-3-1.34-3-3-3z"/></svg>
    <svg id="graphql" viewBox="0 0 20 20"><path d="M10 3.37L9.56001 3.31L4.00001 12.9C4.24001 13.11 4.40001 13.38 4.47001 13.68H15.53C15.6 13.38 15.76 13.11 16 12.9L10.44 3.31L10 3.37ZM4.60001 14.53L8.88001 17.06C9.17001 16.79 9.57001 16.63 10 16.63C10.43 16.63 10.83 16.79 11.12 17.06L15.4 14.53H4.60001ZM10 20C9.55445 20 9.12713 19.823 8.81207 19.5079C8.49701 19.1929 8.32001 18.7656 8.32001 18.32L8.41001 17.76L4.11001 15.21C3.80001 15.57 3.35001 15.79 2.84001 15.79C2.39445 15.79 1.96713 15.613 1.65207 15.2979C1.33701 14.9829 1.16001 14.5556 1.16001 14.11C1.16001 13.32 1.69001 12.66 2.42001 12.47V7.36C1.59001 7.25 0.950012 6.54 0.950012 5.68C0.950012 5.23444 1.12701 4.80712 1.44207 4.49206C1.75713 4.177 2.18445 4 2.63001 4C3.18001 4 3.66001 4.26 3.97001 4.66L8.38001 2.13L8.32001 1.68C8.32001 0.75 9.07001 0 10 0C10.93 0 11.68 0.75 11.68 1.68L11.62 2.13L16.03 4.66C16.34 4.26 16.82 4 17.37 4C17.8156 4 18.2429 4.177 18.558 4.49206C18.873 4.80712 19.05 5.23444 19.05 5.68C19.05 6.54 18.41 7.25 17.58 7.36V12.47C18.31 12.66 18.84 13.32 18.84 14.11C18.84 14.5556 18.663 14.9829 18.3479 15.2979C18.0329 15.613 17.6056 15.79 17.16 15.79C16.65 15.79 16.2 15.57 15.89 15.21L11.59 17.76L11.68 18.32C11.68 18.7656 11.503 19.1929 11.188 19.5079C10.8729 19.823 10.4456 20 10 20ZM8.80001 2.86L4.30001 5.44L4.32001 5.68C4.32001 6.39 3.88001 7 3.26001 7.25L3.29001 12.5L8.80001 2.86ZM11.2 2.86L16.71 12.5L16.74 7.25C16.12 7 15.68 6.39 15.68 5.68L15.7 5.44L11.2 2.86Z"/></svg>
    <svg id="keyboard_arrow_down" viewBox="0 0 10 7"><path d="M10 1.32l-5 5-5-5L1.172.148 5 3.977 8.828.148 10 1.32z"/></svg>
    <svg id="link" viewBox="0 0 20 10"><path d="M15 0H11V2H15C16.65 2 18 3.35 18 5C18 6.65 16.65 8 15 8H11V10H15C17.76 10 20 7.76 20 5C20 2.24 17.76 0 15 0Z"/><path d="M9 8H5C3.35 8 2 6.65 2 5C2 3.35 3.35 2 5 2H9V0H5C2.24 0 0 2.24 0 5C0 7.76 2.24 10 5 10H9V8Z"/><path d="M6 4H14V6H6V4Z"/></svg>
    <svg id="menu" viewBox="0 0 18 12"><path d="M0 0H18V2.01562H0V0ZM0 6.98438V5.01562H18V6.98438H0ZM0 12V9.98438H18V12H0Z"/></svg>
    <svg id="more_vert" viewBox="0 0 6 18"><path d="M1.594 13.594c.406-.406.875-.61 1.406-.61.531 0 1 .204 1.406.61.407.406.61.875.61 1.406 0 .531-.204 1-.61 1.406-.406.407-.875.61-1.406.61-.531 0-1-.203-1.406-.61C1.187 16 .984 15.531.984 15c0-.531.204-1 .61-1.406zm0-6c.406-.407.875-.61 1.406-.61.531 0 1 .204 1.406.61.407.406.61.875.61 1.406 0 .531-.204 1-.61 1.406-.406.406-.875.61-1.406.61-.531 0-1-.204-1.406-.61C1.187 10 .984 9.531.984 9c0-.531.204-1 .61-1.406zm2.812-3.188c-.406.407-.875.61-1.406.61-.531 0-1-.204-1.406-.61C1.187 4 .984 3.531.984 3c0-.531.204-1 .61-1.406C2 1.187 2.469.984 3 .984c.531 0 1 .204 1.406.61.407.406.61.875.61 1.406 0 .531-.204 1-.61 1.406z"/></svg>
    <svg id="palette" viewBox="0 0 24 24"><path d="M16.5601 8.94L7.62006 0L6.21006 1.41L8.59006 3.79L3.44006 8.94C2.85006 9.53 2.85006 10.48 3.44006 11.06L8.94006 16.56C9.23006 16.85 9.62006 17 10.0001 17C10.3801 17 10.7701 16.85 11.0601 16.56L16.5601 11.06C17.1501 10.48 17.1501 9.53 16.5601 8.94ZM5.21006 10L10.0001 5.21L14.7901 10H5.21006ZM19.0001 11.5C19.0001 11.5 17.0001 13.67 17.0001 15C17.0001 16.1 17.9001 17 19.0001 17C20.1001 17 21.0001 16.1 21.0001 15C21.0001 13.67 19.0001 11.5 19.0001 11.5Z"/><path d="M0 20H24V24H0V20Z"/></svg>
    <svg id="percent" viewBox="0 0 17 17"><path fill-rule="evenodd" clip-rule="evenodd" d="M15 0L.5 14.5l2 2L17 2l-2-2zM4 0a3 3 0 1 0 0 6 3 3 0 0 0 0-6zm10 10a3 3 0 1 0 0 6 3 3 0 0 0 0-6zM5 3a1 1 0 1 1-2 0 1 1 0 0 1 2 0zm9 11a1 1 0 1 0 0-2 1 1 0 0 0 0 2z"/></svg>
    <svg id="pie_chart" viewBox="0 0 20 20"><path d="M9 0V20C3.9 19.5 0 15.2 0 10C0 4.8 3.9 0.5 9 0ZM11 0V9H20C19.5 4.2 15.8 0.5 11 0ZM11 11V20C15.7 19.5 19.5 15.8 20 11H11Z"/></svg>
    <svg id="play_circle_filled" viewBox="0 0 24 24"><path d="M0 0h24v24H0z" fill="none"/><path d="M12 2C6.48 2 2 6.48 2 12s4.48 10 10 10 10-4.48 10-10S17.52 2 12 2zm-2 14.5v-9l6 4.5-6 4.5z"/></svg>
    <svg id="plus" viewBox="0 0 20 20"><path fill-rule="evenodd" clip-rule="evenodd" d="M0 10C0 4.48 4.48 0 10 0C15.52 0 20 4.48 20 10C20 15.52 15.52 20 10 20C4.48 20 0 15.52 0 10ZM11 11H15V9H11V5H9V9H5V11H9V15H11V11Z"/></svg>
    <svg id="redo" viewBox="0 0 24 24"><path d="M0 0h24v24H0z" fill="none"/><path d="M18.4 10.6C16.55 8.99 14.15 8 11.5 8c-4.65 0-8.58 3.03-9.96 7.22L3.9 16c1.05-3.19 4.05-5.5 7.6-5.5 1.95 0 3.73.72 5.12 1.88L13 16h9V7l-3.6 3.6z"/></svg>
    <svg id="refresh" viewBox="0 0 17 18"><path d="M13.6719 3.32812L16.0156 0.984375V8.01562H8.98438L12.2188 4.78125C11.0312 3.59375 9.625 3 8 3C6.34375 3 4.92188 3.59375 3.73438 4.78125C2.57812 5.9375 2 7.34375 2 9C2 10.6562 2.57812 12.0781 3.73438 13.2656C4.92188 14.4219 6.34375 15 8 15C9.3125 15 10.4844 14.6406 11.5156 13.9219C12.5469 13.1719 13.2656 12.2031 13.6719 11.0156H15.7344C15.2969 12.7656 14.3594 14.2031 12.9219 15.3281C11.4844 16.4531 9.84375 17.0156 8 17.0156C5.8125 17.0156 3.9375 16.2344 2.375 14.6719C0.8125 13.1094 0.03125 11.2188 0.03125 9C0.03125 6.78125 0.8125 4.89062 2.375 3.32812C3.9375 1.76562 5.8125 0.984375 8 0.984375C10.2188 0.984375 12.1094 1.76562 13.6719 3.32812Z"/></svg>
    <svg id="right" viewBox="0 0 5 10"><path d="M0 10L5 5L0 0L0 10Z"/></svg>
    <svg id="save" viewBox="0 0 18 18"><path d="M12 6V2.01562H2.01562V6H12ZM6.89062 15.0938C7.48438 15.6875 8.1875 15.9844 9 15.9844C9.8125 15.9844 10.5156 15.6875 11.1094 15.0938C11.7031 14.5 12 13.7969 12 12.9844C12 12.1719 11.7031 11.4688 11.1094 10.875C10.5156 10.2812 9.8125 9.98438 9 9.98438C8.1875 9.98438 7.48438 10.2812 6.89062 10.875C6.29688 11.4688 6 12.1719 6 12.9844C6 13.7969 6.29688 14.5 6.89062 15.0938ZM14.0156 0L18 3.98438V15.9844C18 16.5156 17.7969 16.9844 17.3906 17.3906C16.9844 17.7969 16.5156 18 15.9844 18H2.01562C1.45312 18 0.96875 17.7969 0.5625 17.3906C0.1875 16.9844 0 16.5156 0 15.9844V2.01562C0 1.48438 0.1875 1.01562 0.5625 0.609375C0.96875 0.203125 1.45312 0 2.01562 0H14.0156Z"/></svg>
    <svg id="settings" viewBox="0 0 20 20"><path d="M7.516 12.484A3.386 3.386 0 0010 13.516c.969 0 1.797-.344 2.484-1.032A3.386 3.386 0 0013.516 10c0-.969-.344-1.797-1.032-2.484A3.386 3.386 0 0010 6.484c-.969 0-1.797.344-2.484 1.032A3.386 3.386 0 006.484 10c0 .969.344 1.797 1.032 2.484zm9.937-1.5l2.11 1.641c.218.156.25.375.093.656l-2.015 3.469c-.125.219-.328.281-.61.188l-2.484-.985c-.656.469-1.219.797-1.688.985l-.375 2.625c-.062.28-.218.421-.468.421H7.984c-.25 0-.406-.14-.468-.422l-.375-2.625a7.672 7.672 0 01-1.688-.984l-2.484.985c-.281.093-.485.03-.61-.188L.344 13.281c-.156-.281-.125-.5.094-.656l2.109-1.64A7.573 7.573 0 012.5 10c0-.438.016-.766.047-.984L.437 7.375C.22 7.219.188 7 .345 6.719L2.359 3.25c.125-.219.329-.281.61-.188l2.484.985c.656-.469 1.219-.797 1.688-.984L7.516.437c.062-.28.218-.421.468-.421h4.032c.25 0 .406.14.468.421l.375 2.626c.594.25 1.157.578 1.688.984l2.484-.984c.282-.094.485-.032.61.187l2.015 3.469c.157.281.125.5-.093.656l-2.11 1.64c.031.22.047.547.047.985 0 .438-.016.766-.047.984z"/></svg>
    <svg id="undo" viewBox="0 0 24 24"><path d="M0 0h24v24H0z" fill="none"/><path d="M12.5 8c-2.65 0-5.05.99-6.9 2.6L2 7v9h9l-3.62-3.62c1.39-1.16 3.16-1.88 5.12-1.88 3.54 0 6.55 2.31 7.6 5.5l2.37-.78C21.08 11.03 17.15 8 12.5 8z"/></svg>
</svg>
