<svg width="48" height="48" viewBox="0 0 48 48" fill="none" xmlns="http://www.w3.org/2000/svg">
<path d="M0 8C0 3.58172 3.58172 0 8 0H40C44.4183 0 48 3.58172 48 8V40C48 44.4183 44.4183 48 40 48H8C3.58172 48 0 44.4183 0 40V8Z" fill="#0091EA"/>
<path d="M35.2679 20.5523L35.4119 21.3037L36.1749 21.3612C39.9731 21.6475 43 24.8783 43 28.9062C43 29.9077 42.8087 30.8986 42.4377 31.8222C42.0668 32.7458 41.5238 33.583 40.8413 34.2868C40.1589 34.9906 39.3504 35.5471 38.4629 35.9262C37.5754 36.3053 36.6253 36.5 35.6667 36.5H14C11.6232 36.5 9.3372 35.5266 7.64683 33.7834C5.95545 32.0392 5 29.6671 5 27.1875C5 22.351 8.53484 18.4283 13.029 17.9202L13.5647 17.8597L13.8085 17.3789C15.734 13.5824 19.5869 11 24 11C29.557 11 34.2191 15.0809 35.2679 20.5523Z" fill="white" stroke="white" stroke-width="2"/>
</svg>
