<svg width="47" height="47" viewBox="0 0 47 47" fill="none" xmlns="http://www.w3.org/2000/svg">
<path id="fill" d="M0 7.83333C0 3.5071 3.5071 0 7.83333 0H39.1667C43.4929 0 47 3.5071 47 7.83333V39.1667C47 43.4929 43.4929 47 39.1667 47H7.83333C3.5071 47 0 43.4929 0 39.1667V7.83333Z" fill="#0091EA"/>
<path fill-rule="evenodd" clip-rule="evenodd" d="M23.4997 39.1673C32.1521 39.1673 39.1663 32.1531 39.1663 23.5006C39.1663 14.8482 32.1521 7.83398 23.4997 7.83398C14.8472 7.83398 7.83301 14.8482 7.83301 23.5006C7.83301 32.1531 14.8472 39.1673 23.4997 39.1673ZM22.3576 16.6464V21.8686H24.6423V16.6464H26.4853L23.4999 11.5286L20.5146 16.6464H22.3576ZM11.4234 24.6433V22.3585H16.6456V20.5155L21.7634 23.5009L16.6456 26.4863V24.6433H11.4234ZM35.576 22.3585H30.3538V20.5155L25.236 23.5009L30.3538 26.4863V24.6433H35.576V22.3585ZM22.3576 25.1327V30.3549H20.5146L23.4999 35.4727L26.4853 30.3549H24.6423V25.1327H22.3576Z" fill="white"/>
</svg>
