<svg width="47" height="47" viewBox="0 0 96 96" fill="none" xmlns="http://www.w3.org/2000/svg">
<path id="fill" d="M0 16C0 7.16345 7.16344 0 16 0H80C88.8366 0 96 7.16344 96 16V80C96 88.8366 88.8366 96 80 96H16C7.16345 96 0 88.8366 0 80V16Z" fill="#0091EA"/>
<path d="M31.8042 17.4629L28.3184 16C27.2303 18.5442 26.6785 21.2435 26.6785 24.023C26.6785 26.8024 27.2302 29.5017 28.3184 32.0457L31.8042 30.5829C30.9151 28.504 30.4643 26.297 30.4643 24.023C30.4643 21.7489 30.9151 19.5417 31.8042 17.4629Z" fill="white"/>
<path d="M66.6816 16L63.1958 17.4629C64.0849 19.5417 64.5357 21.7487 64.5357 24.0229C64.5357 26.2969 64.0849 28.5039 63.1958 30.5828L66.6816 32.0456C67.7697 29.5014 68.3215 26.8021 68.3215 24.0227C68.3214 21.2435 67.7697 18.5442 66.6816 16Z" fill="white"/>
<path d="M38.7795 20.3791L35.2938 18.9164C34.6013 20.536 34.2501 22.2541 34.2501 24.023C34.2501 25.7919 34.6013 27.5099 35.2938 29.1295L38.7795 27.6669C38.286 26.5126 38.0357 25.2866 38.0357 24.0231C38.0357 22.7595 38.2859 21.5335 38.7795 20.3791Z" fill="white"/>
<path d="M59.7063 18.9164L56.2206 20.379C56.7141 21.5333 56.9644 22.7594 56.9644 24.0227C56.9644 25.2862 56.7142 26.5122 56.2206 27.6665L59.7063 29.1292C60.3988 27.5097 60.75 25.7916 60.75 24.0227C60.75 22.2541 60.3988 20.536 59.7063 18.9164Z" fill="white"/>
<path d="M66.5084 76.2499L51.2776 29.5681C52.4431 28.5373 53.1786 27.0389 53.1786 25.3729C53.1786 22.2711 50.6312 19.7476 47.5 19.7476C44.3688 19.7476 41.8214 22.2711 41.8214 25.3729C41.8214 27.0389 42.5568 28.5371 43.7224 29.5681L28.4918 76.2499H21V80H74V76.2499H66.5084ZM59.079 65.6737L50.7566 59.785L55.9572 56.1053L59.079 65.6737ZM47.5 23.4978C48.5437 23.4978 49.3929 24.3389 49.3929 25.3729C49.3929 26.4068 48.5438 27.248 47.5 27.248C46.4563 27.248 45.6071 26.4069 45.6071 25.3729C45.6071 24.339 46.4563 23.4978 47.5 23.4978ZM47.2365 30.9915C47.324 30.9955 47.4117 30.9981 47.5 30.9981C47.5883 30.9981 47.676 30.9955 47.7633 30.9915L50.2126 38.4984H44.7873L47.2365 30.9915ZM43.5639 42.2485H51.4362L52.6597 45.9986H42.3403L43.5639 42.2485ZM41.1166 49.7489H53.8832L54.7354 52.361L47.4999 57.4808L40.2645 52.361L41.1166 49.7489ZM39.0428 56.1053L44.2434 59.785L35.9209 65.6737L39.0428 56.1053ZM32.4704 76.25L33.966 71.6657L47.5 62.0893L61.0339 71.6655L62.5297 76.25H32.4704Z" fill="white"/>
</svg>
